<svg xmlns="http://www.w3.org/2000/svg" xmlns:xlink="http://www.w3.org/1999/xlink" width="205" height="43" viewBox="0 0 205 43">
    <defs>
        <linearGradient id="prefix__b" x1="20.853%" x2="66.457%" y1="9.007%" y2="101.896%">
            <stop offset="0%" stop-color="#0080FF"/>
            <stop offset="100%" stop-color="#003DFF"/>
        </linearGradient>
        <linearGradient id="prefix__e" x1="34.898%" x2="233.331%" y1="49.109%" y2="60.821%">
            <stop offset="0%" stop-color="#0080FF"/>
            <stop offset="100%" stop-color="#003DFF"/>
        </linearGradient>
        <linearGradient id="prefix__h" x1="-6.058%" x2="64.376%" y1="35.107%" y2="82.847%">
            <stop offset="0%" stop-color="#0CF"/>
            <stop offset="100%" stop-color="#0054FF"/>
        </linearGradient>
        <path id="prefix__a" d="M5.976 0C2.659 0 0 2.64 0 5.848v27.169c0 5.206 4.319 9.432 9.639 9.432h18.466c4.895 0 8.866-3.886 8.866-8.679V22.602h-5.975v10.226c0 2.111-1.735 3.81-3.893 3.81h-16.54c-2.544 0-4.587-2-4.587-4.49V0z"/>
        <path id="prefix__d" d="M6.135 0C2.754 0 0 2.458 0 5.477h15.062V0H6.135z"/>
        <path id="prefix__g" d="M0 0v11.762c0 2.57 2.172 4.67 4.916 4.67h16.993l-5.944-5.647H5.907V5.573L0 0z"/>
    </defs>
    <g fill="none" fill-rule="evenodd">
        <path fill="#000" fill-rule="nonzero" d="M60.044 32.485c1.537 0 2.931-.274 4.182-.821 1.25-.548 2.298-1.343 3.143-2.387l-2.636-2.464c-1.2 1.42-2.687 2.13-4.461 2.13-1.098 0-2.078-.243-2.94-.73-.862-.489-1.534-1.169-2.015-2.041-.482-.873-.723-1.865-.723-2.977 0-1.112.241-2.105.723-2.977.481-.873 1.153-1.553 2.015-2.04.862-.488 1.842-.732 2.94-.732 1.774 0 3.261.702 4.46 2.105l2.637-2.464c-.845-1.027-1.888-1.814-3.13-2.361-1.242-.548-2.632-.821-4.17-.821-1.825 0-3.468.397-4.93 1.193-1.461.795-2.61 1.899-3.447 3.31-.836 1.412-1.254 3.007-1.254 4.787 0 1.78.418 3.375 1.254 4.786.837 1.412 1.986 2.515 3.447 3.31 1.462.796 3.097 1.194 4.905 1.194zm15.592 0c1.436 0 2.72-.278 3.852-.834 1.132-.556 2.015-1.343 2.649-2.361.633-1.018.95-2.186.95-3.503 0-1.283-.266-2.413-.798-3.388-.532-.975-1.289-1.732-2.269-2.271-.98-.539-2.12-.808-3.421-.808-.98 0-1.884.175-2.712.526-.828.35-1.538.85-2.13 1.501.136-1.317.58-2.335 1.331-3.054.752-.719 1.905-1.232 3.46-1.54l5.728-1.155-.532-3.439-6.489 1.31c-2.467.513-4.296 1.595-5.487 3.246-1.191 1.65-1.787 3.862-1.787 6.634 0 2.994.68 5.265 2.04 6.814 1.36 1.548 3.232 2.322 5.615 2.322zm.025-3.105c-.997 0-1.817-.33-2.459-.988-.642-.659-.963-1.51-.963-2.554 0-1.043.313-1.873.938-2.49.625-.615 1.453-.923 2.484-.923 1.014 0 1.83.308 2.446.924.617.616.925 1.446.925 2.49 0 1.026-.308 1.873-.925 2.54s-1.432 1-2.446 1zm16.124 3.002c2.467 0 4.343-.744 5.627-2.232l-2.104-2.31c-.473.462-.984.8-1.533 1.014-.55.214-1.179.32-1.889.32-1.03 0-1.892-.248-2.585-.744-.693-.496-1.132-1.172-1.318-2.027H98.3c.05-.667.076-1.027.076-1.078 0-1.437-.309-2.7-.925-3.785-.617-1.087-1.466-1.921-2.548-2.503-1.08-.581-2.29-.872-3.624-.872-1.369 0-2.606.303-3.713.91-1.107.608-1.977 1.455-2.61 2.542-.634 1.086-.951 2.305-.951 3.657 0 1.368.32 2.592.963 3.67.642 1.077 1.554 1.92 2.737 2.527 1.183.608 2.543.911 4.08.911zm2.864-8.315h-6.717c.136-.89.507-1.59 1.116-2.104.608-.513 1.36-.77 2.255-.77.879 0 1.623.261 2.23.783.61.522.98 1.219 1.116 2.091zm10.041 13.089v-6.442c.997 1.112 2.366 1.668 4.106 1.668 1.267 0 2.42-.295 3.46-.885 1.039-.59 1.854-1.42 2.446-2.49.591-1.069.887-2.313.887-3.733s-.296-2.665-.887-3.734c-.592-1.07-1.407-1.9-2.446-2.49-1.04-.59-2.193-.885-3.46-.885-1.876 0-3.303.599-4.283 1.796V18.37h-3.777v18.786h3.954zm3.422-8.059c-1.014 0-1.846-.346-2.497-1.039-.65-.693-.976-1.621-.976-2.784 0-1.164.326-2.092.976-2.785.65-.693 1.483-1.04 2.497-1.04 1.014 0 1.846.347 2.496 1.04.65.693.976 1.621.976 2.785 0 1.163-.325 2.091-.976 2.784-.65.693-1.482 1.04-2.496 1.04zm20.255 8.059v-4.722c2.62-.188 4.634-.903 6.045-2.143 1.411-1.24 2.116-2.93 2.116-5.069 0-2.104-.705-3.755-2.116-4.953-1.41-1.197-3.426-1.89-6.045-2.079v-5.055h-3.624v5.055c-2.653.189-4.677.873-6.07 2.053-1.395 1.181-2.092 2.84-2.092 4.98 0 2.172.706 3.87 2.117 5.093 1.41 1.224 3.426 1.93 6.045 2.118v4.722h3.624zm-3.624-7.828c-1.504-.17-2.603-.59-3.295-1.257-.693-.667-1.04-1.617-1.04-2.849 0-1.18.347-2.091 1.04-2.733.692-.642 1.79-1.04 3.295-1.193v8.032zm3.624 0v-8.032c1.504.154 2.607.551 3.308 1.193.701.642 1.052 1.553 1.052 2.733 0 1.232-.351 2.182-1.052 2.849-.701.667-1.804 1.086-3.308 1.257zm13.97 3.054c2.027 0 3.413-.641 4.156-1.924v1.72h3.701v-7.88c0-2.053-.566-3.588-1.698-4.606-1.132-1.018-2.754-1.527-4.867-1.527-1.098 0-2.167.145-3.206.436-1.04.29-1.93.701-2.674 1.232l1.42 2.797c.49-.393 1.085-.706 1.786-.937.702-.23 1.416-.346 2.142-.346 1.048 0 1.833.235 2.357.706.524.47.786 1.142.786 2.014h-3.143c-1.994 0-3.468.368-4.423 1.104-.954.736-1.432 1.745-1.432 3.028 0 .804.203 1.523.609 2.156.405.633.992 1.13 1.761 1.488.769.36 1.677.54 2.725.54zm.988-2.694c-.693 0-1.237-.15-1.635-.45-.397-.299-.595-.705-.595-1.218 0-1.078.81-1.617 2.433-1.617h2.712v1.411c-.22.616-.591 1.082-1.115 1.399-.524.316-1.124.475-1.8.475zm16.504-12.806c2.991 0 4.495-1.326 4.512-3.978h-2.636c0 .598-.165 1.065-.494 1.398-.33.334-.799.5-1.407.5s-1.069-.166-1.381-.5c-.313-.333-.478-.8-.495-1.398h-2.585c.017 2.652 1.513 3.978 4.486 3.978zm-3.193 15.295l6.615-8.212v8.212h3.929V18.37h-3.625l-6.64 8.212V18.37h-3.929v13.807h3.65zm14.02.282c1.082 0 1.926-.342 2.535-1.026.608-.685 1.047-1.626 1.318-2.823.27-1.198.44-2.703.507-4.517l.126-2.438h4.31v10.522h3.953V18.37h-11.659l-.203 5.543c-.05 1.112-.126 2.006-.228 2.682-.101.676-.3 1.232-.595 1.668-.296.437-.74.655-1.331.655-.118 0-.313-.017-.583-.052l-.203 3.285c.794.206 1.479.308 2.053.308zm22.537-.256c1.892 0 3.354-.42 4.385-1.258 1.03-.838 1.546-2.027 1.546-3.567 0-1.471-.457-2.6-1.37-3.388-.912-.787-2.255-1.189-4.029-1.206h-3.244V18.37h-3.929v13.807l6.64.026zm11.33-.026V18.37h-3.93v13.807h3.93zm-11.567-2.822h-2.475V25.35l2.357.025c.777.017 1.364.18 1.761.488.397.308.596.795.596 1.463 0 .684-.203 1.197-.608 1.54-.406.342-.989.504-1.75.487l.12.001z"/>
        <g>
            <mask id="prefix__c" fill="#fff">
                <use xlink:href="#prefix__a"/>
            </mask>
            <path fill="url(#prefix__b)" d="M5.976 0C2.659 0 0 2.64 0 5.848v27.169c0 5.206 4.319 9.432 9.639 9.432h18.466c4.895 0 8.866-3.886 8.866-8.679V22.602h-5.975v10.226c0 2.111-1.735 3.81-3.893 3.81h-16.54c-2.544 0-4.587-2-4.587-4.49V0z" mask="url(#prefix__c)"/>
        </g>
        <g>
            <mask id="prefix__f" fill="#fff">
                <use xlink:href="#prefix__d"/>
            </mask>
            <path fill="url(#prefix__e)" d="M6.135 0C2.754 0 0 2.458 0 5.477h15.062V0H6.135z" mask="url(#prefix__f)"/>
        </g>
        <g transform="translate(15.062)">
            <mask id="prefix__i" fill="#fff">
                <use xlink:href="#prefix__g"/>
            </mask>
            <path fill="url(#prefix__h)" d="M0 0v11.762c0 2.57 2.172 4.67 4.916 4.67h16.993l-5.944-5.647H5.907V5.573L0 0z" mask="url(#prefix__i)"/>
        </g>
    </g>
</svg>
